<?xml version="1.0" encoding="UTF-8" standalone="no"?>
<!-- Created with Inkscape (http://www.inkscape.org/) -->

<svg
   xmlns:dc="http://purl.org/dc/elements/1.1/"
   xmlns:cc="http://creativecommons.org/ns#"
   xmlns:rdf="http://www.w3.org/1999/02/22-rdf-syntax-ns#"
   xmlns:svg="http://www.w3.org/2000/svg"
   xmlns="http://www.w3.org/2000/svg"
   xmlns:xlink="http://www.w3.org/1999/xlink"
   xmlns:sodipodi="http://sodipodi.sourceforge.net/DTD/sodipodi-0.dtd"
   xmlns:inkscape="http://www.inkscape.org/namespaces/inkscape"
   width="105.79803mm"
   height="10.762452mm"
   viewBox="0 0 105.79803 10.762452"
   version="1.1"
   id="svg5613"
   inkscape:version="0.92.4 (5da689c313, 2019-01-14)"
   sodipodi:docname="logo-inline-dark.svg">
  <defs
     id="defs5607">
    <linearGradient
       gradientTransform="matrix(0.08932268,0,0,0.0866159,94.241338,81.953334)"
       inkscape:collect="always"
       xlink:href="#linearGradient5588"
       id="linearGradient4305-7-2"
       x1="337.50995"
       y1="218.15762"
       x2="337.50995"
       y2="140.26346"
       gradientUnits="userSpaceOnUse" />
    <linearGradient
       id="linearGradient5588"
       inkscape:collect="always">
      <stop
         id="stop5584"
         offset="0"
         style="stop-color:#003080;stop-opacity:1" />
      <stop
         id="stop5586"
         offset="1"
         style="stop-color:#3e83f2;stop-opacity:1" />
    </linearGradient>
  </defs>
  <sodipodi:namedview
     id="base"
     pagecolor="#ffffff"
     bordercolor="#666666"
     borderopacity="1.0"
     inkscape:pageopacity="0.0"
     inkscape:pageshadow="2"
     inkscape:zoom="2.8"
     inkscape:cx="187.93317"
     inkscape:cy="-16.172694"
     inkscape:document-units="mm"
     inkscape:current-layer="layer1"
     showgrid="false"
     inkscape:window-width="1920"
     inkscape:window-height="1017"
     inkscape:window-x="-8"
     inkscape:window-y="-8"
     inkscape:window-maximized="1" />
  <metadata
     id="metadata5610">
    <rdf:RDF>
      <cc:Work
         rdf:about="">
        <dc:format>image/svg+xml</dc:format>
        <dc:type
           rdf:resource="http://purl.org/dc/dcmitype/StillImage" />
        <dc:title></dc:title>
      </cc:Work>
    </rdf:RDF>
  </metadata>
  <g
     inkscape:label="Layer 1"
     inkscape:groupmode="layer"
     id="layer1"
     transform="translate(-42.350984,-95.071159)">
    <g
       aria-label="CROSSWORDS"
       style="font-style:normal;font-variant:normal;font-weight:bold;font-stretch:normal;font-size:7.48337507px;line-height:1.25;font-family:Rubik;-inkscape-font-specification:'Rubik Bold';letter-spacing:0.48418751px;word-spacing:0px;fill:#82aeff;fill-opacity:0.59420286;stroke:none;stroke-width:0.37435114"
       id="text2613-2-4">
      <path
         d="m 44.633413,103.266 q -1.070123,0 -1.683759,-0.51636 -0.606154,-0.51635 -0.643571,-1.51164 -0.0075,-0.20205 -0.0075,-0.65854 0,-0.46397 0.0075,-0.6735 0.03742,-0.972838 0.651054,-1.496675 0.62112,-0.531319 1.676276,-0.531319 0.66602,0 1.189857,0.217018 0.531319,0.217018 0.838138,0.628603 0.306818,0.411586 0.321785,0.972839 0,0.06735 -0.05238,0.112251 -0.0449,0.0449 -0.11225,0.0449 h -1.06264 q -0.104767,0 -0.157151,-0.03742 -0.0449,-0.0449 -0.08232,-0.157151 -0.104767,-0.366685 -0.321785,-0.508869 -0.209534,-0.149668 -0.561253,-0.149668 -0.845621,0 -0.875555,0.942905 -0.0075,0.202053 -0.0075,0.621123 0,0.41907 0.0075,0.63608 0.02993,0.94291 0.875555,0.94291 0.344235,0 0.561253,-0.14967 0.224501,-0.14967 0.321785,-0.50887 0.02993,-0.11225 0.08232,-0.14966 0.05238,-0.0449 0.157151,-0.0449 h 1.06264 q 0.06735,0 0.11225,0.0449 0.05238,0.0449 0.05238,0.11225 -0.01497,0.56125 -0.321785,0.97283 -0.306819,0.41159 -0.838138,0.62861 -0.523837,0.21702 -1.189857,0.21702 z"
         style="font-style:normal;font-variant:normal;font-weight:bold;font-stretch:normal;font-size:7.48337507px;font-family:Rubik;-inkscape-font-specification:'Rubik Bold';letter-spacing:0.48418751px;fill:#82aeff;fill-opacity:0.59420286;stroke-width:0.37435114"
         id="path7415" />
      <path
         d="m 48.41087,103.19116 q -0.07483,0 -0.134701,-0.0524 -0.05238,-0.0599 -0.05238,-0.1347 v -4.856713 q 0,-0.08232 0.05238,-0.1347 0.05238,-0.05987 0.134701,-0.05987 h 2.057928 q 0.987806,0 1.541576,0.449002 0.561253,0.449003 0.561253,1.26469 0,0.523838 -0.246952,0.890518 -0.239468,0.36669 -0.66602,0.56874 l 1.010256,1.82594 q 0.02245,0.0449 0.02245,0.0823 0,0.0599 -0.0449,0.11225 -0.0449,0.0449 -0.11225,0.0449 h -1.055156 q -0.217018,0 -0.306818,-0.20205 l -0.823172,-1.62389 H 49.63066 v 1.63886 q 0,0.0823 -0.05987,0.1347 -0.05238,0.0524 -0.134701,0.0524 z m 2.050445,-2.926 q 0.321785,0 0.486419,-0.15715 0.172118,-0.164633 0.172118,-0.449001 0,-0.284368 -0.172118,-0.456486 Q 50.7831,99.030406 50.461315,99.030406 H 49.63066 v 1.234754 z"
         style="font-style:normal;font-variant:normal;font-weight:bold;font-stretch:normal;font-size:7.48337507px;font-family:Rubik;-inkscape-font-specification:'Rubik Bold';letter-spacing:0.48418751px;fill:#82aeff;fill-opacity:0.59420286;stroke-width:0.37435114"
         id="path7417" />
      <path
         d="m 56.052204,103.266 q -1.062639,0 -1.676276,-0.51636 -0.613637,-0.51635 -0.651054,-1.51912 -0.0075,-0.20954 -0.0075,-0.64357 0,-0.43404 0.0075,-0.651056 0.02993,-0.987806 0.651054,-1.519125 0.628603,-0.538803 1.676276,-0.538803 1.040189,0 1.661309,0.538803 0.628604,0.531319 0.658537,1.519125 0.01497,0.434036 0.01497,0.651056 0,0.2245 -0.01497,0.64357 -0.03742,1.00277 -0.651053,1.51912 -0.606154,0.51636 -1.668793,0.51636 z m 0,-1.12251 q 0.389135,0 0.62112,-0.23199 0.231985,-0.23946 0.246951,-0.72588 0.01497,-0.43404 0.01497,-0.62112 0,-0.18709 -0.01497,-0.606156 -0.01497,-0.486419 -0.246951,-0.718404 -0.231985,-0.239468 -0.62112,-0.239468 -0.396619,0 -0.628604,0.239468 -0.231984,0.231985 -0.246951,0.718404 -0.0075,0.209536 -0.0075,0.606156 0,0.4041 0.0075,0.62112 0.01497,0.48642 0.246951,0.72588 0.231985,0.23199 0.628604,0.23199 z"
         style="font-style:normal;font-variant:normal;font-weight:bold;font-stretch:normal;font-size:7.48337507px;font-family:Rubik;-inkscape-font-specification:'Rubik Bold';letter-spacing:0.48418751px;fill:#82aeff;fill-opacity:0.59420286;stroke-width:0.37435114"
         id="path7419" />
      <path
         d="m 61.698751,103.266 q -0.725887,0 -1.234757,-0.20954 -0.508869,-0.20953 -0.770788,-0.55377 -0.261918,-0.34423 -0.276884,-0.74834 0,-0.0674 0.0449,-0.11225 0.05238,-0.0449 0.119734,-0.0449 h 0.995289 q 0.0898,0 0.142184,0.0299 0.05987,0.0299 0.127217,0.10476 0.09728,0.1796 0.299335,0.29934 0.209535,0.11225 0.55377,0.11225 0.404102,0 0.62112,-0.11973 0.217018,-0.12722 0.217018,-0.34424 0,-0.15715 -0.112251,-0.25443 -0.11225,-0.10477 -0.359202,-0.17961 -0.246951,-0.0823 -0.71092,-0.1796 -0.905489,-0.1796 -1.354491,-0.54628 -0.449003,-0.36669 -0.449003,-1.047675 0,-0.46397 0.254435,-0.823172 0.261918,-0.366685 0.733371,-0.568736 0.478936,-0.202051 1.107539,-0.202051 0.658537,0 1.137473,0.231984 0.48642,0.224502 0.740855,0.568737 0.261918,0.336752 0.276884,0.66602 0,0.06735 -0.0449,0.119734 -0.0449,0.0449 -0.11225,0.0449 h -1.047673 q -0.164634,0 -0.254435,-0.134701 -0.0449,-0.157151 -0.231984,-0.261918 -0.187085,-0.112251 -0.46397,-0.112251 -0.314301,0 -0.486419,0.112251 -0.172118,0.11225 -0.172118,0.329268 0,0.217018 0.224502,0.344235 0.224501,0.119734 0.838138,0.246954 0.703437,0.12722 1.115023,0.32178 0.419069,0.18709 0.613636,0.49391 0.202051,0.29933 0.202051,0.7633 0,0.50887 -0.291851,0.88304 -0.291852,0.37417 -0.808205,0.57622 -0.516353,0.19457 -1.182373,0.19457 z"
         style="font-style:normal;font-variant:normal;font-weight:bold;font-stretch:normal;font-size:7.48337507px;font-family:Rubik;-inkscape-font-specification:'Rubik Bold';letter-spacing:0.48418751px;fill:#82aeff;fill-opacity:0.59420286;stroke-width:0.37435114"
         id="path7421" />
      <path
         d="m 67.166984,103.266 q -0.725887,0 -1.234757,-0.20954 -0.508869,-0.20953 -0.770787,-0.55377 -0.261919,-0.34423 -0.276885,-0.74834 0,-0.0674 0.0449,-0.11225 0.05238,-0.0449 0.119734,-0.0449 h 0.995289 q 0.0898,0 0.142184,0.0299 0.05987,0.0299 0.127217,0.10476 0.09728,0.1796 0.299335,0.29934 0.209535,0.11225 0.55377,0.11225 0.404102,0 0.62112,-0.11973 0.217018,-0.12722 0.217018,-0.34424 0,-0.15715 -0.112251,-0.25443 -0.11225,-0.10477 -0.359202,-0.17961 -0.246951,-0.0823 -0.71092,-0.1796 -0.905489,-0.1796 -1.354491,-0.54628 -0.449003,-0.36669 -0.449003,-1.047675 0,-0.46397 0.254435,-0.823172 0.261918,-0.366685 0.733371,-0.568736 0.478936,-0.202051 1.107539,-0.202051 0.658537,0 1.137474,0.231984 0.486419,0.224502 0.740854,0.568737 0.261918,0.336752 0.276885,0.66602 0,0.06735 -0.0449,0.119734 -0.0449,0.0449 -0.11225,0.0449 h -1.047673 q -0.164634,0 -0.254435,-0.134701 -0.0449,-0.157151 -0.231984,-0.261918 -0.187085,-0.112251 -0.46397,-0.112251 -0.314301,0 -0.486419,0.112251 -0.172118,0.11225 -0.172118,0.329268 0,0.217018 0.224502,0.344235 0.224501,0.119734 0.838138,0.246954 0.703437,0.12722 1.115023,0.32178 0.419069,0.18709 0.613636,0.49391 0.202052,0.29933 0.202052,0.7633 0,0.50887 -0.291852,0.88304 -0.291852,0.37417 -0.808205,0.57622 -0.516353,0.19457 -1.182373,0.19457 z"
         style="font-style:normal;font-variant:normal;font-weight:bold;font-stretch:normal;font-size:7.48337507px;font-family:Rubik;-inkscape-font-specification:'Rubik Bold';letter-spacing:0.48418751px;fill:#82aeff;fill-opacity:0.59420286;stroke-width:0.37435114"
         id="path7423" />
      <path
         d="m 71.431795,103.19116 q -0.127217,0 -0.209535,-0.0673 -0.07483,-0.0748 -0.0898,-0.1796 l -0.800721,-4.789359 q -0.0075,-0.01497 -0.0075,-0.0449 0,-0.05987 0.0449,-0.104767 0.05238,-0.05238 0.11225,-0.05238 h 0.980322 q 0.217018,0 0.239468,0.172117 l 0.456486,2.828713 0.516353,-1.638856 q 0.05987,-0.202051 0.246952,-0.202051 h 0.561253 q 0.187084,0 0.246951,0.202051 l 0.516353,1.631376 0.463969,-2.821233 q 0.01497,-0.0898 0.06735,-0.127217 0.05238,-0.0449 0.164634,-0.0449 h 0.980322 q 0.06735,0 0.112251,0.05238 0.0449,0.0449 0.0449,0.104767 v 0.0449 l -0.800721,4.789359 q -0.01497,0.10477 -0.09728,0.1796 -0.08232,0.0673 -0.202051,0.0673 h -0.755821 q -0.119734,0 -0.187085,-0.0599 -0.06735,-0.0599 -0.0898,-0.13471 l -0.740854,-2.07289 -0.740854,2.07289 q -0.02993,0.0748 -0.09728,0.13471 -0.06735,0.0599 -0.187085,0.0599 z"
         style="font-style:normal;font-variant:normal;font-weight:bold;font-stretch:normal;font-size:7.48337507px;font-family:Rubik;-inkscape-font-specification:'Rubik Bold';letter-spacing:0.48418751px;fill:#82aeff;fill-opacity:0.59420286;stroke-width:0.37435114"
         id="path7425" />
      <path
         d="m 79.430578,103.266 q -1.062639,0 -1.676276,-0.51636 -0.613637,-0.51635 -0.651054,-1.51912 -0.0075,-0.20954 -0.0075,-0.64357 0,-0.43404 0.0075,-0.651056 0.02993,-0.987806 0.651054,-1.519125 0.628603,-0.538803 1.676276,-0.538803 1.040189,0 1.661309,0.538803 0.628604,0.531319 0.658537,1.519125 0.01497,0.434036 0.01497,0.651056 0,0.2245 -0.01497,0.64357 -0.03742,1.00277 -0.651053,1.51912 -0.606154,0.51636 -1.668793,0.51636 z m 0,-1.12251 q 0.389135,0 0.62112,-0.23199 0.231985,-0.23946 0.246951,-0.72588 0.01497,-0.43404 0.01497,-0.62112 0,-0.18709 -0.01497,-0.606156 -0.01497,-0.486419 -0.246951,-0.718404 -0.231985,-0.239468 -0.62112,-0.239468 -0.396619,0 -0.628604,0.239468 -0.231984,0.231985 -0.246951,0.718404 -0.0075,0.209536 -0.0075,0.606156 0,0.4041 0.0075,0.62112 0.01497,0.48642 0.246951,0.72588 0.231985,0.23199 0.628604,0.23199 z"
         style="font-style:normal;font-variant:normal;font-weight:bold;font-stretch:normal;font-size:7.48337507px;font-family:Rubik;-inkscape-font-specification:'Rubik Bold';letter-spacing:0.48418751px;fill:#82aeff;fill-opacity:0.59420286;stroke-width:0.37435114"
         id="path7427" />
      <path
         d="m 83.281113,103.19116 q -0.07483,0 -0.134701,-0.0524 -0.05238,-0.0599 -0.05238,-0.1347 v -4.856713 q 0,-0.08232 0.05238,-0.1347 0.05238,-0.05987 0.134701,-0.05987 h 2.057928 q 0.987806,0 1.541576,0.449002 0.561253,0.449003 0.561253,1.26469 0,0.523838 -0.246952,0.890518 -0.239468,0.36669 -0.66602,0.56874 l 1.010256,1.82594 q 0.02245,0.0449 0.02245,0.0823 0,0.0599 -0.0449,0.11225 -0.0449,0.0449 -0.11225,0.0449 h -1.055156 q -0.217018,0 -0.306818,-0.20205 l -0.823172,-1.62389 h -0.718404 v 1.63886 q 0,0.0823 -0.05987,0.1347 -0.05238,0.0524 -0.1347,0.0524 z m 2.050445,-2.926 q 0.321785,0 0.486419,-0.15715 0.172118,-0.164633 0.172118,-0.449001 0,-0.284368 -0.172118,-0.456486 -0.164634,-0.172117 -0.486419,-0.172117 h -0.830655 v 1.234754 z"
         style="font-style:normal;font-variant:normal;font-weight:bold;font-stretch:normal;font-size:7.48337507px;font-family:Rubik;-inkscape-font-specification:'Rubik Bold';letter-spacing:0.48418751px;fill:#82aeff;fill-opacity:0.59420286;stroke-width:0.37435114"
         id="path7429" />
      <path
         d="m 88.968586,103.19116 q -0.07483,0 -0.1347,-0.0524 -0.05238,-0.0599 -0.05238,-0.1347 v -4.856713 q 0,-0.08232 0.05238,-0.1347 0.05238,-0.05987 0.1347,-0.05987 h 1.968128 q 1.10754,0 1.721176,0.531319 0.613637,0.523836 0.643571,1.511642 0.0075,0.217019 0.0075,0.576219 0,0.3592 -0.0075,0.56874 -0.07483,2.05044 -2.32733,2.05044 z m 1.968128,-1.1225 q 0.471453,0 0.695954,-0.22451 0.224501,-0.2245 0.239468,-0.7184 0.01497,-0.21702 0.01497,-0.56125 0,-0.34424 -0.01497,-0.55377 -0.01497,-0.478938 -0.261918,-0.70344 -0.239468,-0.231984 -0.710921,-0.231984 h -0.71092 v 2.993354 z"
         style="font-style:normal;font-variant:normal;font-weight:bold;font-stretch:normal;font-size:7.48337507px;font-family:Rubik;-inkscape-font-specification:'Rubik Bold';letter-spacing:0.48418751px;fill:#82aeff;fill-opacity:0.59420286;stroke-width:0.37435114"
         id="path7431" />
      <path
         d="m 96.627462,103.266 q -0.725887,0 -1.234757,-0.20954 -0.508869,-0.20953 -0.770788,-0.55377 -0.261918,-0.34423 -0.276884,-0.74834 0,-0.0674 0.0449,-0.11225 0.05238,-0.0449 0.119734,-0.0449 h 0.995289 q 0.0898,0 0.142184,0.0299 0.05987,0.0299 0.127217,0.10476 0.09728,0.1796 0.299335,0.29934 0.209535,0.11225 0.55377,0.11225 0.404102,0 0.62112,-0.11973 0.217018,-0.12722 0.217018,-0.34424 0,-0.15715 -0.112251,-0.25443 -0.11225,-0.10477 -0.359202,-0.17961 -0.246951,-0.0823 -0.71092,-0.1796 -0.905489,-0.1796 -1.354491,-0.54628 -0.449003,-0.36669 -0.449003,-1.047675 0,-0.46397 0.254435,-0.823172 0.261918,-0.366685 0.733371,-0.568736 0.478936,-0.202051 1.107539,-0.202051 0.658537,0 1.137473,0.231984 0.48642,0.224502 0.740854,0.568737 0.261919,0.336752 0.276885,0.66602 0,0.06735 -0.0449,0.119734 -0.0449,0.0449 -0.112251,0.0449 h -1.047672 q -0.164634,0 -0.254435,-0.134701 -0.0449,-0.157151 -0.231984,-0.261918 -0.187085,-0.112251 -0.46397,-0.112251 -0.314301,0 -0.486419,0.112251 -0.172118,0.11225 -0.172118,0.329268 0,0.217018 0.224502,0.344235 0.224501,0.119734 0.838138,0.246954 0.703437,0.12722 1.115022,0.32178 0.419069,0.18709 0.613637,0.49391 0.202051,0.29933 0.202051,0.7633 0,0.50887 -0.291851,0.88304 -0.291852,0.37417 -0.808205,0.57622 -0.516353,0.19457 -1.182373,0.19457 z"
         style="font-style:normal;font-variant:normal;font-weight:bold;font-stretch:normal;font-size:7.48337507px;font-family:Rubik;-inkscape-font-specification:'Rubik Bold';letter-spacing:0.48418751px;fill:#82aeff;fill-opacity:0.59420286;stroke-width:0.37435114"
         id="path7433" />
    </g>
    <rect
       ry="1.4111112"
       y="95.160721"
       x="101.49279"
       height="10.583328"
       width="46.566658"
       id="rect4289-7-6"
       style="opacity:1;fill:url(#linearGradient4305-7-2);fill-opacity:1;stroke:#0043b6;stroke-width:0.17912371;stroke-linecap:round;stroke-linejoin:round;stroke-miterlimit:4;stroke-dasharray:none;stroke-dashoffset:0;stroke-opacity:1"
       inkscape:export-xdpi="96"
       inkscape:export-ydpi="96" />
    <g
       aria-label="together"
       transform="scale(1.015505,0.98473173)"
       style="font-style:normal;font-variant:normal;font-weight:bold;font-stretch:normal;font-size:8.50376701px;line-height:10.25;font-family:Rubik;-inkscape-font-specification:'Rubik Bold';letter-spacing:0.57998347px;word-spacing:0px;fill:#93b7ff;fill-opacity:1;stroke:#000000;stroke-width:0.19287966;stroke-miterlimit:4;stroke-dasharray:none;stroke-opacity:0.32850246"
       id="text1030-8-1">
      <path
         d="m 104.75799,104.6262 q -1.80279,0 -1.80279,-1.69225 v -1.5732 h -0.6718 q -0.085,0 -0.15307,-0.0595 -0.0595,-0.068 -0.0595,-0.15306 v -0.73133 q 0,-0.0935 0.0595,-0.15306 0.068,-0.0595 0.15307,-0.0595 h 0.6718 v -1.403123 q 0,-0.09354 0.0595,-0.153067 0.068,-0.05953 0.15307,-0.05953 h 1.04596 q 0.0935,0 0.15307,0.05953 0.0595,0.05953 0.0595,0.153067 v 1.403123 h 1.06297 q 0.0935,0 0.15307,0.0595 0.068,0.0595 0.068,0.15306 v 0.73133 q 0,0.0935 -0.068,0.15306 -0.0595,0.0595 -0.15307,0.0595 h -1.06297 v 1.44564 q 0,0.29763 0.11055,0.4507 0.11055,0.15307 0.35716,0.15307 h 0.67179 q 0.0935,0 0.15307,0.068 0.0595,0.0595 0.0595,0.15307 v 0.78234 q 0,0.085 -0.0595,0.15307 -0.0595,0.0595 -0.15307,0.0595 z"
         style="font-style:normal;font-variant:normal;font-weight:bold;font-stretch:normal;font-size:8.50376701px;line-height:10.25;font-family:Rubik;-inkscape-font-specification:'Rubik Bold';letter-spacing:0.57998347px;fill:#93b7ff;fill-opacity:1;stroke:#000000;stroke-width:0.19287966;stroke-miterlimit:4;stroke-dasharray:none;stroke-opacity:0.32850246"
         id="path7436" />
      <path
         d="m 109.17836,104.71124 q -1.07148,0 -1.64973,-0.49322 -0.56975,-0.50173 -0.62078,-1.42013 -0.008,-0.11055 -0.008,-0.38267 0,-0.27212 0.008,-0.38267 0.051,-0.9014 0.63779,-1.40312 0.59526,-0.51023 1.63272,-0.51023 1.03746,0 1.62422,0.51023 0.59526,0.50172 0.64628,1.40312 0.017,0.2211 0.017,0.38267 0,0.16157 -0.017,0.38267 -0.051,0.9184 -0.62927,1.42013 -0.56976,0.49322 -1.64123,0.49322 z m 0,-1.07148 q 0.34865,0 0.51873,-0.21259 0.17007,-0.2211 0.19559,-0.6718 0.008,-0.085 0.008,-0.34015 0,-0.25511 -0.008,-0.34015 -0.0255,-0.4422 -0.19559,-0.6633 -0.17008,-0.22109 -0.51873,-0.22109 -0.34866,0 -0.51873,0.22109 -0.17008,0.2211 -0.19559,0.6633 l -0.008,0.34015 0.008,0.34015 q 0.0255,0.4507 0.19559,0.6718 0.17007,0.21259 0.51873,0.21259 z"
         style="font-style:normal;font-variant:normal;font-weight:bold;font-stretch:normal;font-size:8.50376701px;line-height:10.25;font-family:Rubik;-inkscape-font-specification:'Rubik Bold';letter-spacing:0.57998347px;fill:#93b7ff;fill-opacity:1;stroke:#000000;stroke-width:0.19287966;stroke-miterlimit:4;stroke-dasharray:none;stroke-opacity:0.32850246"
         id="path7438" />
      <path
         d="m 115.05858,106.49703 q -0.81636,0 -1.32659,-0.26362 -0.51022,-0.26362 -0.73132,-0.61227 -0.2211,-0.34015 -0.2211,-0.56975 0,-0.085 0.068,-0.14457 0.068,-0.0595 0.15307,-0.0595 h 1.1395 q 0.085,0 0.13606,0.034 0.051,0.0425 0.0936,0.13606 0.085,0.18708 0.22109,0.28913 0.13606,0.11055 0.42519,0.11055 0.36566,0 0.54424,-0.18708 0.17858,-0.17858 0.17858,-0.60377 v -0.56975 q -0.4507,0.4677 -1.23304,0.4677 -0.85888,0 -1.31809,-0.49322 -0.4507,-0.50172 -0.49322,-1.47115 l -0.008,-0.2296 q 0,-1.03746 0.4592,-1.62422 0.46771,-0.58676 1.36061,-0.58676 0.43369,0 0.76533,0.17008 0.33165,0.16157 0.55275,0.44219 v -0.30613 q 0,-0.0935 0.0595,-0.15307 0.0595,-0.068 0.15306,-0.068 h 1.03746 q 0.0935,0 0.15307,0.068 0.068,0.0595 0.068,0.15307 v 4.0733 q 0,0.97793 -0.58676,1.48816 -0.58676,0.51023 -1.64973,0.51023 z m -0.068,-3.12089 q 0.36566,0 0.54424,-0.22109 0.17858,-0.2211 0.20409,-0.56125 0.009,-0.0595 0.009,-0.25512 0,-0.20409 -0.009,-0.25511 -0.0255,-0.34865 -0.20409,-0.56125 -0.17858,-0.2211 -0.54424,-0.2211 -0.37417,0 -0.54424,0.22961 -0.17008,0.22109 -0.18708,0.62077 l -0.009,0.18708 q 0,0.48472 0.16157,0.76534 0.16158,0.27212 0.57826,0.27212 z"
         style="font-style:normal;font-variant:normal;font-weight:bold;font-stretch:normal;font-size:8.50376701px;line-height:10.25;font-family:Rubik;-inkscape-font-specification:'Rubik Bold';letter-spacing:0.57998347px;fill:#93b7ff;fill-opacity:1;stroke:#000000;stroke-width:0.19287966;stroke-miterlimit:4;stroke-dasharray:none;stroke-opacity:0.32850246"
         id="path7440" />
      <path
         d="m 120.93362,104.71124 q -1.03746,0 -1.63272,-0.55275 -0.59527,-0.56125 -0.61227,-1.62422 v -0.26362 q 0.034,-1.01194 0.62928,-1.5817 0.59526,-0.56975 1.60721,-0.56975 0.73132,0 1.23304,0.29763 0.51023,0.28913 0.75684,0.80786 0.25511,0.51023 0.25511,1.16502 v 0.21259 q 0,0.0935 -0.068,0.16157 -0.0595,0.0595 -0.15307,0.0595 h -2.69569 v 0.051 q 0.008,0.38267 0.17858,0.62078 0.17007,0.2296 0.48471,0.2296 0.20409,0 0.32315,-0.0765 0.12755,-0.085 0.2381,-0.21259 0.0765,-0.085 0.11905,-0.10204 0.051,-0.0255 0.15307,-0.0255 h 1.114 q 0.0765,0 0.12755,0.051 0.0595,0.0425 0.0595,0.11055 0,0.22109 -0.25511,0.51873 -0.24661,0.29763 -0.73133,0.51022 -0.47621,0.2126 -1.131,0.2126 z m 0.6718,-2.75523 v -0.017 q 0,-0.40818 -0.17858,-0.62928 -0.17858,-0.2296 -0.50172,-0.2296 -0.32315,0 -0.50172,0.2296 -0.17008,0.2211 -0.17008,0.62928 v 0.017 z"
         style="font-style:normal;font-variant:normal;font-weight:bold;font-stretch:normal;font-size:8.50376701px;line-height:10.25;font-family:Rubik;-inkscape-font-specification:'Rubik Bold';letter-spacing:0.57998347px;fill:#93b7ff;fill-opacity:1;stroke:#000000;stroke-width:0.19287966;stroke-miterlimit:4;stroke-dasharray:none;stroke-opacity:0.32850246"
         id="path7442" />
      <path
         d="m 126.82593,104.6262 q -1.80279,0 -1.80279,-1.69225 v -1.5732 h -0.6718 q -0.085,0 -0.15307,-0.0595 -0.0595,-0.068 -0.0595,-0.15306 v -0.73133 q 0,-0.0935 0.0595,-0.15306 0.068,-0.0595 0.15307,-0.0595 h 0.6718 v -1.403123 q 0,-0.09354 0.0595,-0.153067 0.068,-0.05953 0.15307,-0.05953 h 1.04596 q 0.0935,0 0.15307,0.05953 0.0595,0.05953 0.0595,0.153067 v 1.403123 h 1.06297 q 0.0935,0 0.15307,0.0595 0.068,0.0595 0.068,0.15306 v 0.73133 q 0,0.0935 -0.068,0.15306 -0.0595,0.0595 -0.15307,0.0595 h -1.06297 v 1.44564 q 0,0.29763 0.11055,0.4507 0.11055,0.15307 0.35715,0.15307 h 0.6718 q 0.0935,0 0.15307,0.068 0.0595,0.0595 0.0595,0.15307 v 0.78234 q 0,0.085 -0.0595,0.15307 -0.0595,0.0595 -0.15307,0.0595 z"
         style="font-style:normal;font-variant:normal;font-weight:bold;font-stretch:normal;font-size:8.50376701px;line-height:10.25;font-family:Rubik;-inkscape-font-specification:'Rubik Bold';letter-spacing:0.57998347px;fill:#93b7ff;fill-opacity:1;stroke:#000000;stroke-width:0.19287966;stroke-miterlimit:4;stroke-dasharray:none;stroke-opacity:0.32850246"
         id="path7444" />
      <path
         d="m 129.34146,104.6262 q -0.0936,0 -0.16158,-0.0595 -0.0595,-0.0595 -0.0595,-0.15307 v -5.612483 q 0,-0.09354 0.0595,-0.153067 0.068,-0.05953 0.16158,-0.05953 h 1.148 q 0.0935,0 0.15307,0.05953 0.068,0.05953 0.068,0.153067 v 1.896343 q 0.49322,-0.57826 1.33509,-0.57826 0.48472,0 0.87589,0.2211 0.39117,0.2211 0.61227,0.65479 0.2211,0.43369 0.2211,1.04596 v 2.37255 q 0,0.0935 -0.068,0.15307 -0.0595,0.0595 -0.15307,0.0595 h -1.15651 q -0.085,0 -0.15307,-0.0595 -0.0595,-0.068 -0.0595,-0.15307 v -2.32152 q 0,-0.37417 -0.18709,-0.57826 -0.18708,-0.2126 -0.53573,-0.2126 -0.34015,0 -0.53574,0.2126 -0.19559,0.20409 -0.19559,0.57826 v 2.32152 q 0,0.0935 -0.068,0.15307 -0.0595,0.0595 -0.15307,0.0595 z"
         style="font-style:normal;font-variant:normal;font-weight:bold;font-stretch:normal;font-size:8.50376701px;line-height:10.25;font-family:Rubik;-inkscape-font-specification:'Rubik Bold';letter-spacing:0.57998347px;fill:#93b7ff;fill-opacity:1;stroke:#000000;stroke-width:0.19287966;stroke-miterlimit:4;stroke-dasharray:none;stroke-opacity:0.32850246"
         id="path7446" />
      <path
         d="m 137.33925,104.71124 q -1.03746,0 -1.63273,-0.55275 -0.59526,-0.56125 -0.61227,-1.62422 v -0.26362 q 0.034,-1.01194 0.62928,-1.5817 0.59527,-0.56975 1.60721,-0.56975 0.73133,0 1.23305,0.29763 0.51023,0.28913 0.75684,0.80786 0.25511,0.51023 0.25511,1.16502 v 0.21259 q 0,0.0935 -0.068,0.16157 -0.0595,0.0595 -0.15307,0.0595 h -2.69569 v 0.051 q 0.008,0.38267 0.17858,0.62078 0.17007,0.2296 0.48471,0.2296 0.20409,0 0.32314,-0.0765 0.12756,-0.085 0.23811,-0.21259 0.0765,-0.085 0.11905,-0.10204 0.051,-0.0255 0.15307,-0.0255 h 1.11399 q 0.0765,0 0.12756,0.051 0.0595,0.0425 0.0595,0.11055 0,0.22109 -0.25512,0.51873 -0.24661,0.29763 -0.73132,0.51022 -0.47621,0.2126 -1.131,0.2126 z m 0.67179,-2.75523 v -0.017 q 0,-0.40818 -0.17857,-0.62928 -0.17858,-0.2296 -0.50173,-0.2296 -0.32314,0 -0.50172,0.2296 -0.17007,0.2211 -0.17007,0.62928 v 0.017 z"
         style="font-style:normal;font-variant:normal;font-weight:bold;font-stretch:normal;font-size:8.50376701px;line-height:10.25;font-family:Rubik;-inkscape-font-specification:'Rubik Bold';letter-spacing:0.57998347px;fill:#93b7ff;fill-opacity:1;stroke:#000000;stroke-width:0.19287966;stroke-miterlimit:4;stroke-dasharray:none;stroke-opacity:0.32850246"
         id="path7448" />
      <path
         d="m 141.13923,104.6262 q -0.085,0 -0.15306,-0.0595 -0.0595,-0.068 -0.0595,-0.15307 v -3.98826 q 0,-0.0935 0.0595,-0.15307 0.0595,-0.068 0.15306,-0.068 h 1.03746 q 0.0935,0 0.15307,0.068 0.068,0.0595 0.068,0.15307 v 0.32314 q 0.23811,-0.26362 0.55275,-0.39968 0.32314,-0.14456 0.71431,-0.14456 h 0.38267 q 0.0935,0 0.15307,0.0595 0.0595,0.0595 0.0595,0.15306 v 0.92691 q 0,0.085 -0.0595,0.15307 -0.0595,0.0595 -0.15307,0.0595 h -0.85888 q -0.34015,0 -0.52723,0.18708 -0.17858,0.18708 -0.17858,0.52723 v 2.14295 q 0,0.0935 -0.068,0.15307 -0.0595,0.0595 -0.15307,0.0595 z"
         style="font-style:normal;font-variant:normal;font-weight:bold;font-stretch:normal;font-size:8.50376701px;line-height:10.25;font-family:Rubik;-inkscape-font-specification:'Rubik Bold';letter-spacing:0.57998347px;fill:#93b7ff;fill-opacity:1;stroke:#000000;stroke-width:0.19287966;stroke-miterlimit:4;stroke-dasharray:none;stroke-opacity:0.32850246"
         id="path7450" />
    </g>
  </g>
</svg>
